<?xml version="1.0" encoding="UTF-8"?><svg id="d" xmlns="http://www.w3.org/2000/svg" width="300" height="300" viewBox="0 0 300 300"><defs><style>.e{stroke:#868254;}.e,.f{fill:none;stroke-miterlimit:10;stroke-width:20px;}.f{stroke:#b2a769;}</style></defs><circle class="e" cx="240" cy="210" r="10"/><circle class="e" cx="60" cy="210" r="10"/><path class="f" d="M200,58h-100c-56,0-87,107-87,107h274s-30-107-87-107Z"/><polyline class="f" points="290 174 290 255 10 255 10 174"/><path class="f" d="M10,255h20v30c0,2.76-2.24,5-5,5h-10c-2.76,0-5-2.24-5-5v-30h0Z"/><path class="f" d="M270,255.5h20v30c0,2.76-2.24,5-5,5h-10c-2.76,0-5-2.24-5-5v-30h0Z"/></svg>